<svg xmlns="http://www.w3.org/2000/svg" xmlns:xlink="http://www.w3.org/1999/xlink" version="1.0" id="Ebene_1" x="0px" y="0px" width="100px" height="100px" viewBox="0 0 100 100" enable-background="new 0 0 100 100" xml:space="preserve">
<g>
	<path fill="#000000" d="M72.296,32.924c-0.191-1.724-0.445-3.43-0.781-5.106h-0.044c-0.585-3.67-13.005-6.602-28.247-6.602   c-15.243,0-27.663,2.932-28.247,6.602h-0.098c-0.764,3.811-1.167,7.756-1.167,11.794c0,11.934,3.505,23.036,9.524,32.317   c0.012,0.018,0.023,0.037,0.036,0.055c0.309,0.475,0.624,0.945,0.946,1.41c0.056,0.08,0.112,0.16,0.168,0.242   c0.32,0.457,0.644,0.91,0.977,1.357h0.014c1.181,2.141,8.719,3.791,17.847,3.791c9.366,0,17.062-1.738,17.928-3.959   c0.325-0.441,0.643-0.889,0.955-1.34c0.072-0.105,0.144-0.209,0.215-0.314c0.298-0.434,0.59-0.873,0.876-1.316   c0.009-0.014,0.019-0.027,0.028-0.043c0.32-0.498,0.634-1.004,0.939-1.514c0.017-0.025,0.032-0.053,0.048-0.08   c0.302-0.502,0.596-1.01,0.883-1.523c0.002-0.002,0.004-0.006,0.006-0.01l0,0c0.473-0.844,0.928-1.701,1.361-2.57   c8.308-0.582,19.519-10.209,19.811-25.475l0.015-0.703C86.288,33.494,79.188,32.975,72.296,32.924z M43.224,32.462   c-13.414,0-24.288-1.958-24.288-4.375c0-2.416,10.874-4.375,24.288-4.375c13.413,0,24.287,1.959,24.287,4.375   C67.511,30.504,56.637,32.462,43.224,32.462z M80.435,40.522c-0.172,8.976-5.028,15.451-10.021,18.283   c2.068-6.173,3.116-12.618,3.116-19.194c0-0.271-0.006-0.542-0.015-0.812c6.731,0.186,6.933,0.989,6.934,1.068L80.435,40.522z"/>
</g>
</svg>