<svg xmlns="http://www.w3.org/2000/svg" xmlns:xlink="http://www.w3.org/1999/xlink" version="1.1" id="Layer_1" x="0px" y="0px" width="52.6315789474px" height="100px" viewBox="0 0 100 190.153" enable-background="new 0 0 100 190.153" xml:space="preserve">
<g>
	<polygon fill="#000000" points="86.282,190.153 16.625,190.153 9.417,87.497 93.484,87.497  "/>
	<g>
		<path fill="#000000" d="M99.672,80.529c0,1.391-1.275,2.529-2.835,2.529H3.305c-1.559,0-2.834-1.025-2.834-2.279    s1.217-2.66,2.705-3.126l4.59-1.436c1.488-0.466,2.705-2.122,2.705-3.681v-2.018c0-1.559,1.275-2.834,2.834-2.834h73.532    c1.56,0,2.835,1.275,2.835,2.834v2.018c0,1.559,1.233,3.159,2.741,3.555l4.518,1.188C98.438,77.676,99.672,79.139,99.672,80.529z"/>
	</g>
</g>
<g>
	<g>
		<path fill="#000000" d="M22.271,1.46c-5.315,6.353-9.067,15.971-5.484,24.001c3.123,7,11.552,10.077,10.042,18.829    c-0.713,4.136-3.417,6.776-5.027,10.389c-1.561,3.502,3.608,6.557,5.181,3.028c1.346-3.02,3.511-5.597,4.751-8.759    c2.017-5.14,1.634-10.656-0.916-15.5c-1.525-2.899-4.317-4.827-6.53-7.134c-2.699-2.813-3.277-6.867-2.611-10.547    c0.636-3.52,2.777-7.603,4.836-10.065C28.978,2.756,24.757-1.512,22.271,1.46L22.271,1.46z"/>
	</g>
</g>
<g>
	<g>
		<path fill="#000000" d="M45.399,1.46c-5.314,6.353-9.066,15.971-5.484,24.001c3.122,7,11.55,10.077,10.041,18.829    c-0.713,4.136-3.417,6.776-5.026,10.389c-1.56,3.502,3.609,6.557,5.181,3.028c1.346-3.02,3.51-5.598,4.75-8.759    c2.016-5.14,1.634-10.656-0.915-15.5c-1.525-2.899-4.316-4.827-6.529-7.134c-2.699-2.813-3.276-6.867-2.611-10.547    c0.636-3.52,2.777-7.603,4.836-10.065C52.105,2.756,47.884-1.512,45.399,1.46L45.399,1.46z"/>
	</g>
</g>
<g>
	<g>
		<path fill="#000000" d="M68.31,1.46c-5.315,6.353-9.067,15.971-5.484,24.001c3.122,7,11.552,10.077,10.042,18.829    c-0.713,4.136-3.417,6.776-5.027,10.389c-1.561,3.502,3.608,6.557,5.182,3.028c1.346-3.02,3.511-5.597,4.751-8.759    c2.017-5.14,1.634-10.656-0.915-15.5c-1.526-2.899-4.317-4.827-6.531-7.134c-2.699-2.813-3.276-6.867-2.611-10.547    c0.637-3.521,2.777-7.603,4.837-10.065C75.017,2.757,70.795-1.511,68.31,1.46L68.31,1.46z"/>
	</g>
</g>
</svg>